# xmcd
#
# Track frame offsets:
#	150
#	19920
#	38040
#	57196
#	75477
#	101814
#	121862
#	139970
#	159412
#	176533
#	199316
#	216850
#
# Disc length: 3071 seconds
#
# Revision: 0
# Processed by: cddbd v1.5.2PL0 Copyright (c) Steve Scherf et al.
# Submitted via: audiograbber 1.82.01
#
DISCID=a20bfd0c
DTITLE=Joan Osborne - Pretty Little Stranger
DYEAR=2006
DGENRE=Pop
TTITLE0=Pretty Little Stranger
TTITLE1=Brokedown Palace
TTITLE2=Who Divided
TTITLE3=Holy Waters
TTITLE4=What You Are
TTITLE5=Shake That Devil
TTITLE6=Please Don't Tell Me How The Story Ends
TTITLE7=Time Won't Tell
TTITLE8=Dead Roses
TTITLE9=After Jane
TTITLE10=Till I Get It Right
TTITLE11=When The Blue Hour Comes
EXTD=
EXTT0=
EXTT1=
EXTT2=
EXTT3=
EXTT4=
EXTT5=
EXTT6=
EXTT7=
EXTT8=
EXTT9=
EXTT10=
EXTT11=
PLAYORDER=
